<svg width="448" height="133" viewBox="0 0 448 133" fill="none" xmlns="http://www.w3.org/2000/svg">
<path fill-rule="evenodd" clip-rule="evenodd" d="M135.315 46.8223C143.391 46.8223 150.696 48.7731 157.229 52.6748C163.853 56.4859 169.117 61.6582 173.019 68.1914C176.92 74.6339 178.871 81.848 178.871 89.833C178.871 97.7273 176.92 104.941 173.019 111.475C169.117 118.008 163.854 123.226 157.229 127.128C150.696 130.939 143.391 132.845 135.315 132.845C127.331 132.845 120.026 130.939 113.402 127.128C106.778 123.226 101.515 118.008 97.6133 111.475C93.7115 104.941 91.7607 97.7274 91.7607 89.833C91.7608 81.848 93.7115 74.6339 97.6133 68.1914C101.515 61.6582 106.778 56.4859 113.402 52.6748C120.026 48.7732 127.331 46.8223 135.315 46.8223ZM135.315 64.3809C130.688 64.3809 126.468 65.5607 122.657 67.9199C118.846 70.1884 115.807 73.2281 113.538 77.0391C111.36 80.8501 110.272 85.1147 110.271 89.833C110.271 92.726 110.683 95.4481 111.502 98H159.079C159.932 95.4481 160.36 92.726 160.36 89.833C160.36 85.1146 159.225 80.8501 156.957 77.0391C154.779 73.2282 151.785 70.1884 147.975 67.9199C144.163 65.5607 139.943 64.3809 135.315 64.3809Z" fill="white"/>
<path d="M19.1914 57.8477C22.1858 54.2181 25.7703 51.4955 29.9443 49.6807C34.1184 47.7751 38.5647 46.8223 43.2832 46.8223C49.0906 46.8223 54.4897 48.229 59.4805 51.042C64.4712 53.855 68.5096 57.9383 71.5947 63.292C74.6798 68.6456 76.2227 75.1338 76.2227 82.7559V130.667H57.0303V85.3418C57.0303 79.8974 55.3516 75.0422 51.9941 70.7773C48.7275 66.5129 44.0999 64.3809 38.1113 64.3809C33.2113 64.3809 28.8101 66.1046 24.9082 69.5527C21.0971 73.0009 19.1914 78.1281 19.1914 84.9336V130.667H0V0H19.1914V57.8477Z" fill="white"/>
<path d="M277.344 130.667H258.152V49H277.344V130.667Z" fill="white"/>
<path d="M320.647 114.333H354.131V130.667H292.745L328.542 65.333H295.331V49H356.445L320.647 114.333Z" fill="white"/>
<path d="M414.994 46.8223C420.802 46.8223 426.201 48.229 431.191 51.042C436.182 53.855 440.22 57.9383 443.306 63.292C446.391 68.6456 447.934 75.1338 447.934 82.7559V130.667H428.741V85.3418C428.741 79.8974 427.062 75.0431 423.705 70.7783C420.438 66.5136 415.811 64.3809 409.822 64.3809C404.922 64.3809 400.521 66.1046 396.619 69.5527C392.808 73.0009 390.902 78.1281 390.902 84.9336V130.667H371.711V49H389.133V60.0254C392.127 55.7606 395.848 52.4931 400.294 50.2246C404.831 47.9561 409.731 46.8223 414.994 46.8223Z" fill="white"/>
<path d="M245.136 66.0137C243.412 65.4693 241.461 65.1973 239.283 65.1973C232.024 65.1973 226.171 67.5109 221.725 72.1387C217.369 76.7664 215.191 83.3906 215.191 92.0107V130.666H196V49H213.422V63.4277C216.326 58.7093 220.046 54.9888 224.583 52.2666C229.12 49.5444 234.519 48.1836 240.78 48.1836L245.136 66.0137Z" fill="white"/>
<path d="M267.815 13.2031C271.082 13.2031 273.76 14.292 275.847 16.4697C278.024 18.6474 279.113 21.3243 279.113 24.5C279.113 27.6758 278.024 30.3526 275.847 32.5303C273.669 34.708 270.991 35.7969 267.815 35.7969C264.64 35.7968 261.963 34.708 259.785 32.5303C257.607 30.2618 256.519 27.5851 256.519 24.5C256.519 21.2335 257.608 18.5567 259.785 16.4697C262.054 14.292 264.73 13.2032 267.815 13.2031Z" fill="white"/>
</svg>
